<svg xmlns="http://www.w3.org/2000/svg" viewBox="0 0 64 64">
  <circle cx="32" cy="32" r="30" fill="#2c3e2b" stroke="#c4a35a" stroke-width="1.5"/>
  <circle cx="32" cy="32" r="27" fill="none" stroke="#5c7c5a" stroke-width="0.5" stroke-dasharray="2,3"/>

  <path d="M10 32 Q17 22 24 32 Q17 42 10 32" fill="#5c7c5a" opacity="0.8"/>
  <path d="M54 32 Q47 22 40 32 Q47 42 54 32" fill="#5c7c5a" opacity="0.8"/>
  <line x1="10" y1="32" x2="24" y2="32" stroke="#8ba888" stroke-width="0.6"/>
  <line x1="40" y1="32" x2="54" y2="32" stroke="#8ba888" stroke-width="0.6"/>

  <path d="M16 16 Q21 10 26 16 Q21 22 16 16" fill="#5c7c5a" opacity="0.6" transform="rotate(-45,21,16)"/>
  <path d="M38 16 Q43 10 48 16 Q43 22 38 16" fill="#5c7c5a" opacity="0.6" transform="rotate(45,43,16)"/>
  <path d="M16 48 Q21 42 26 48 Q21 54 16 48" fill="#5c7c5a" opacity="0.6" transform="rotate(45,21,48)"/>
  <path d="M38 48 Q43 42 48 48 Q43 54 38 48" fill="#5c7c5a" opacity="0.6" transform="rotate(-45,43,48)"/>

  <text x="32" y="36" font-family="Georgia, serif" font-size="16" fill="#f5f0e8" text-anchor="middle" font-style="italic">J&amp;A</text>

  <circle cx="10" cy="32" r="1.5" fill="#c4a35a" opacity="0.7"/>
  <circle cx="54" cy="32" r="1.5" fill="#c4a35a" opacity="0.7"/>
  <circle cx="32" cy="3" r="1.5" fill="#c4a35a" opacity="0.5"/>
  <circle cx="32" cy="61" r="1.5" fill="#c4a35a" opacity="0.5"/>
</svg>